<svg viewBox="0 0 24 24" fill="none" xmlns="http://www.w3.org/2000/svg" id="Camera-Plus--Streamline-Unicons">
  <desc>
    Camera Plus Streamline Icon: https://streamlinehq.com
  </desc>
  <path d="M20 10.5c-0.2652 0 -0.5196 0.1054 -0.7071 0.2929S19 11.2348 19 11.5v7c0 0.2652 -0.1054 0.5196 -0.2929 0.7071S18.2652 19.5 18 19.5H4c-0.26522 0 -0.51957 -0.1054 -0.70711 -0.2929C3.10536 19.0196 3 18.7652 3 18.5v-8c0 -0.2652 0.10536 -0.51957 0.29289 -0.70711C3.48043 9.60536 3.73478 9.5 4 9.5h2c0.21807 0.01138 0.43386 -0.04893 0.61443 -0.17171C6.795 9.2055 6.93042 9.02698 7 8.82l0.54 -1.64c0.06709 -0.19862 0.1949 -0.37114 0.36537 -0.49316 0.17047 -0.12202 0.37499 -0.18738 0.58463 -0.18684H14c0.2652 0 0.5196 -0.10536 0.7071 -0.29289C14.8946 6.01957 15 5.76522 15 5.5s-0.1054 -0.51957 -0.2929 -0.70711C14.5196 4.60536 14.2652 4.5 14 4.5H8.44c-0.62845 0.00118 -1.24067 0.19968 -1.75023 0.56751C6.1802 5.43533 5.79901 5.95389 5.6 6.55l-0.32 1H4c-0.79565 0 -1.55871 0.31607 -2.12132 0.87868C1.31607 8.99129 1 9.75435 1 10.55v8c0 0.7956 0.31607 1.5587 0.87868 2.1213 0.56261 0.5626 1.32567 0.8787 2.12132 0.8787h14c0.7956 0 1.5587 -0.3161 2.1213 -0.8787 0.5626 -0.5626 0.8787 -1.3257 0.8787 -2.1213v-7c0.0068 -0.1355 -0.0141 -0.2709 -0.0613 -0.3981 -0.0472 -0.1271 -0.1198 -0.2433 -0.2133 -0.3416 -0.0936 -0.0982 -0.2061 -0.1763 -0.3308 -0.2297 -0.1247 -0.0533 -0.259 -0.0808 -0.3946 -0.0806Zm-9 -1c-0.7911 0 -1.56448 0.2346 -2.22228 0.6741 -0.6578 0.4395 -1.17049 1.0643 -1.47324 1.7952 -0.30275 0.7309 -0.38196 1.5351 -0.22762 2.3111 0.15434 0.7759 0.5353 1.4886 1.09471 2.048 0.55941 0.5594 1.27214 0.9404 2.04803 1.0947 0.776 0.1544 1.5802 0.0752 2.3111 -0.2276 0.7309 -0.3027 1.3557 -0.8154 1.7952 -1.4732S15 14.2911 15 13.5c0 -1.0609 -0.4214 -2.0783 -1.1716 -2.8284C13.0783 9.92143 12.0609 9.5 11 9.5Zm0 6c-0.3956 0 -0.7822 -0.1173 -1.11114 -0.3371 -0.3289 -0.2197 -0.58524 -0.5321 -0.73662 -0.8975 -0.15137 -0.3655 -0.19098 -0.7676 -0.11381 -1.1556 0.07717 -0.3879 0.26765 -0.7443 0.54736 -1.024 0.2797 -0.2797 0.63611 -0.4702 1.02401 -0.5474 0.388 -0.0771 0.7901 -0.0375 1.1556 0.1138 0.3654 0.1514 0.6778 0.4078 0.8975 0.7367 0.2198 0.3289 0.3371 0.7155 0.3371 1.1111 0 0.5304 -0.2107 1.0391 -0.5858 1.4142S11.5304 15.5 11 15.5Zm11 -11h-1v-1c0 -0.26522 -0.1054 -0.51957 -0.2929 -0.70711C20.5196 2.60536 20.2652 2.5 20 2.5c-0.2652 0 -0.5196 0.10536 -0.7071 0.29289C19.1054 2.98043 19 3.23478 19 3.5v1h-1c-0.2652 0 -0.5196 0.10536 -0.7071 0.29289C17.1054 4.98043 17 5.23478 17 5.5s0.1054 0.51957 0.2929 0.70711c0.1875 0.18753 0.4419 0.29289 0.7071 0.29289h1v1c0 0.26522 0.1054 0.51957 0.2929 0.70711 0.1875 0.18753 0.4419 0.29289 0.7071 0.29289 0.2652 0 0.5196 -0.10536 0.7071 -0.29289C20.8946 8.01957 21 7.76522 21 7.5v-1h1c0.2652 0 0.5196 -0.10536 0.7071 -0.29289C22.8946 6.01957 23 5.76522 23 5.5s-0.1054 -0.51957 -0.2929 -0.70711C22.5196 4.60536 22.2652 4.5 22 4.5Z" fill="#000000" stroke-width="1"></path>
</svg>